<svg width="900" height="450" xmlns="http://www.w3.org/2000/svg">
<rect width="900" height="450" fill="#121212"/>
<line x1="40" y1="420" x2="860" y2="420" stroke="#e0e0e0" stroke-width="1" opacity="1"/>
<line x1="40" y1="20" x2="40" y2="420" stroke="#e0e0e0" stroke-width="1" opacity="1"/>
<line x1="40.0" y1="420" x2="40.0" y2="425" stroke="#e0e0e0" stroke-width="1" opacity="1"/>
<text fill="#e0e0e0" x="40.0" y="440" text-anchor="middle" font-size="12" opacity="1">0.0</text>
<line x1="204.0" y1="420" x2="204.0" y2="425" stroke="#e0e0e0" stroke-width="1" opacity="1"/>
<text fill="#e0e0e0" x="204.0" y="440" text-anchor="middle" font-size="12" opacity="1">0.6</text>
<line x1="368.0" y1="420" x2="368.0" y2="425" stroke="#e0e0e0" stroke-width="1" opacity="1"/>
<text fill="#e0e0e0" x="368.0" y="440" text-anchor="middle" font-size="12" opacity="1">1.2</text>
<line x1="532.0" y1="420" x2="532.0" y2="425" stroke="#e0e0e0" stroke-width="1" opacity="1"/>
<text fill="#e0e0e0" x="532.0" y="440" text-anchor="middle" font-size="12" opacity="1">1.8</text>
<line x1="696.0" y1="420" x2="696.0" y2="425" stroke="#e0e0e0" stroke-width="1" opacity="1"/>
<text fill="#e0e0e0" x="696.0" y="440" text-anchor="middle" font-size="12" opacity="1">2.4</text>
<line x1="860.0" y1="420" x2="860.0" y2="425" stroke="#e0e0e0" stroke-width="1" opacity="1"/>
<text fill="#e0e0e0" x="860.0" y="440" text-anchor="middle" font-size="12" opacity="1">3.0</text>
<line x1="35" y1="420.0" x2="40" y2="420.0" stroke="#e0e0e0" stroke-width="1" opacity="1"/>
<text fill="#e0e0e0" x="30" y="424.0" text-anchor="middle" font-size="12" opacity="1">0.0</text>
<line x1="40" y1="420.0" x2="860" y2="420.0" stroke="#444444" stroke-width="1" opacity="1" stroke-dasharray="4,4"/>
<line x1="35" y1="340.0" x2="40" y2="340.0" stroke="#e0e0e0" stroke-width="1" opacity="1"/>
<text fill="#e0e0e0" x="30" y="344.0" text-anchor="middle" font-size="12" opacity="1">38.0</text>
<line x1="40" y1="340.0" x2="860" y2="340.0" stroke="#444444" stroke-width="1" opacity="1" stroke-dasharray="4,4"/>
<line x1="35" y1="260.0" x2="40" y2="260.0" stroke="#e0e0e0" stroke-width="1" opacity="1"/>
<text fill="#e0e0e0" x="30" y="264.0" text-anchor="middle" font-size="12" opacity="1">76.0</text>
<line x1="40" y1="260.0" x2="860" y2="260.0" stroke="#444444" stroke-width="1" opacity="1" stroke-dasharray="4,4"/>
<line x1="35" y1="180.0" x2="40" y2="180.0" stroke="#e0e0e0" stroke-width="1" opacity="1"/>
<text fill="#e0e0e0" x="30" y="184.0" text-anchor="middle" font-size="12" opacity="1">114.0</text>
<line x1="40" y1="180.0" x2="860" y2="180.0" stroke="#444444" stroke-width="1" opacity="1" stroke-dasharray="4,4"/>
<line x1="35" y1="100.0" x2="40" y2="100.0" stroke="#e0e0e0" stroke-width="1" opacity="1"/>
<text fill="#e0e0e0" x="30" y="104.0" text-anchor="middle" font-size="12" opacity="1">152.0</text>
<line x1="40" y1="100.0" x2="860" y2="100.0" stroke="#444444" stroke-width="1" opacity="1" stroke-dasharray="4,4"/>
<line x1="35" y1="20.0" x2="40" y2="20.0" stroke="#e0e0e0" stroke-width="1" opacity="1"/>
<text fill="#e0e0e0" x="30" y="24.0" text-anchor="middle" font-size="12" opacity="1">190.0</text>
<line x1="40" y1="20.0" x2="860" y2="20.0" stroke="#444444" stroke-width="1" opacity="1" stroke-dasharray="4,4"/>
<rect x="60.5" y="209.47368421052633" width="54.666666666666664" height="210.52631578947367" fill="#ff6384" opacity="1"/>
<rect x="265.5" y="241.05263157894737" width="54.666666666666664" height="178.94736842105263" fill="#ff6384" opacity="1"/>
<rect x="470.5" y="325.2631578947369" width="54.666666666666664" height="94.73684210526312" fill="#ff6384" opacity="1"/>
<rect x="675.5" y="325.2631578947369" width="54.666666666666664" height="94.73684210526312" fill="#ff6384" opacity="1"/>
<rect x="115.16666666666666" y="209.47368421052633" width="54.666666666666664" height="210.52631578947367" fill="#36a2eb" opacity="1"/>
<rect x="320.1666666666667" y="230.5263157894737" width="54.666666666666664" height="189.4736842105263" fill="#36a2eb" opacity="1"/>
<rect x="525.1666666666666" y="304.2105263157895" width="54.666666666666664" height="115.78947368421052" fill="#36a2eb" opacity="1"/>
<rect x="730.1666666666666" y="304.2105263157895" width="54.666666666666664" height="115.78947368421052" fill="#36a2eb" opacity="1"/>
<rect x="169.83333333333331" y="209.47368421052633" width="54.666666666666664" height="210.52631578947367" fill="#ff9f40" opacity="1"/>
<rect x="374.8333333333333" y="156.84210526315786" width="54.666666666666664" height="263.15789473684214" fill="#ff9f40" opacity="1"/>
<rect x="579.8333333333334" y="156.84210526315786" width="54.666666666666664" height="263.15789473684214" fill="#ff9f40" opacity="1"/>
<rect x="784.8333333333334" y="20.0" width="54.666666666666664" height="400.0" fill="#ff9f40" opacity="1"/>
<rect x="770" y="20" width="15" height="15" fill="#ff6384" opacity="1"/>
<text fill="#e0e0e0" x="790" y="32" text-anchor="start" font-size="12" opacity="1">Phishing</text>
<rect x="770" y="40" width="15" height="15" fill="#36a2eb" opacity="1"/>
<text fill="#e0e0e0" x="790" y="52" text-anchor="start" font-size="12" opacity="1">Credentials</text>
<rect x="770" y="60" width="15" height="15" fill="#ff9f40" opacity="1"/>
<text fill="#e0e0e0" x="790" y="72" text-anchor="start" font-size="12" opacity="1">Vulns</text>
</svg>