<svg width="900" height="550" xmlns="http://www.w3.org/2000/svg">
<rect width="900" height="550" fill="#121212"/>
<line x1="120" y1="520" x2="860" y2="520" stroke="#e0e0e0" stroke-width="1" opacity="1"/>
<line x1="120" y1="20" x2="120" y2="520" stroke="#e0e0e0" stroke-width="1" opacity="1"/>
<line x1="120.0" y1="520" x2="120.0" y2="525" stroke="#e0e0e0" stroke-width="1" opacity="1"/>
<text fill="#e0e0e0" x="120.0" y="540" text-anchor="middle" font-size="12" opacity="1">0.0</text>
<line x1="120.0" y1="20" x2="120.0" y2="520" stroke="#444444" stroke-width="1" opacity="1" stroke-dasharray="4,4"/>
<line x1="268.0" y1="520" x2="268.0" y2="525" stroke="#e0e0e0" stroke-width="1" opacity="1"/>
<text fill="#e0e0e0" x="268.0" y="540" text-anchor="middle" font-size="12" opacity="1">2.0</text>
<line x1="268.0" y1="20" x2="268.0" y2="520" stroke="#444444" stroke-width="1" opacity="1" stroke-dasharray="4,4"/>
<line x1="416.0" y1="520" x2="416.0" y2="525" stroke="#e0e0e0" stroke-width="1" opacity="1"/>
<text fill="#e0e0e0" x="416.0" y="540" text-anchor="middle" font-size="12" opacity="1">3.9</text>
<line x1="416.0" y1="20" x2="416.0" y2="520" stroke="#444444" stroke-width="1" opacity="1" stroke-dasharray="4,4"/>
<line x1="564.0" y1="520" x2="564.0" y2="525" stroke="#e0e0e0" stroke-width="1" opacity="1"/>
<text fill="#e0e0e0" x="564.0" y="540" text-anchor="middle" font-size="12" opacity="1">5.9</text>
<line x1="564.0" y1="20" x2="564.0" y2="520" stroke="#444444" stroke-width="1" opacity="1" stroke-dasharray="4,4"/>
<line x1="712.0" y1="520" x2="712.0" y2="525" stroke="#e0e0e0" stroke-width="1" opacity="1"/>
<text fill="#e0e0e0" x="712.0" y="540" text-anchor="middle" font-size="12" opacity="1">7.8</text>
<line x1="712.0" y1="20" x2="712.0" y2="520" stroke="#444444" stroke-width="1" opacity="1" stroke-dasharray="4,4"/>
<line x1="860.0" y1="520" x2="860.0" y2="525" stroke="#e0e0e0" stroke-width="1" opacity="1"/>
<text fill="#e0e0e0" x="860.0" y="540" text-anchor="middle" font-size="12" opacity="1">9.8</text>
<line x1="860.0" y1="20" x2="860.0" y2="520" stroke="#444444" stroke-width="1" opacity="1" stroke-dasharray="4,4"/>
<line x1="115" y1="520.0" x2="120" y2="520.0" stroke="#e0e0e0" stroke-width="1" opacity="1"/>
<text fill="#e0e0e0" x="110" y="524.0" text-anchor="middle" font-size="12" opacity="1">0.0</text>
<line x1="115" y1="470.0" x2="120" y2="470.0" stroke="#e0e0e0" stroke-width="1" opacity="1"/>
<text fill="#e0e0e0" x="110" y="474.0" text-anchor="middle" font-size="12" opacity="1">1.0</text>
<line x1="115" y1="420.0" x2="120" y2="420.0" stroke="#e0e0e0" stroke-width="1" opacity="1"/>
<text fill="#e0e0e0" x="110" y="424.0" text-anchor="middle" font-size="12" opacity="1">2.0</text>
<line x1="115" y1="370.0" x2="120" y2="370.0" stroke="#e0e0e0" stroke-width="1" opacity="1"/>
<text fill="#e0e0e0" x="110" y="374.0" text-anchor="middle" font-size="12" opacity="1">3.0</text>
<line x1="115" y1="320.0" x2="120" y2="320.0" stroke="#e0e0e0" stroke-width="1" opacity="1"/>
<text fill="#e0e0e0" x="110" y="324.0" text-anchor="middle" font-size="12" opacity="1">4.0</text>
<line x1="115" y1="270.0" x2="120" y2="270.0" stroke="#e0e0e0" stroke-width="1" opacity="1"/>
<text fill="#e0e0e0" x="110" y="274.0" text-anchor="middle" font-size="12" opacity="1">5.0</text>
<line x1="115" y1="220.0" x2="120" y2="220.0" stroke="#e0e0e0" stroke-width="1" opacity="1"/>
<text fill="#e0e0e0" x="110" y="224.0" text-anchor="middle" font-size="12" opacity="1">6.0</text>
<line x1="115" y1="170.0" x2="120" y2="170.0" stroke="#e0e0e0" stroke-width="1" opacity="1"/>
<text fill="#e0e0e0" x="110" y="174.0" text-anchor="middle" font-size="12" opacity="1">7.0</text>
<line x1="115" y1="120.0" x2="120" y2="120.0" stroke="#e0e0e0" stroke-width="1" opacity="1"/>
<text fill="#e0e0e0" x="110" y="124.0" text-anchor="middle" font-size="12" opacity="1">8.0</text>
<line x1="115" y1="70.0" x2="120" y2="70.0" stroke="#e0e0e0" stroke-width="1" opacity="1"/>
<text fill="#e0e0e0" x="110" y="74.0" text-anchor="middle" font-size="12" opacity="1">9.0</text>
<line x1="115" y1="20.0" x2="120" y2="20.0" stroke="#e0e0e0" stroke-width="1" opacity="1"/>
<text fill="#e0e0e0" x="110" y="24.0" text-anchor="middle" font-size="12" opacity="1">10.0</text>
<rect x="120.0" y="30.0" width="740.0" height="30.0" fill="#ff4d4d" opacity="1"/>
<rect x="120.0" y="80.0" width="460.5117707267144" height="30.0" fill="#ff7a45" opacity="1"/>
<rect x="120.0" y="130.0" width="421.12589559877165" height="30.0" fill="#ff9f40" opacity="1"/>
<rect x="120.0" y="180.0" width="412.79426816786076" height="30.0" fill="#ffb347" opacity="1"/>
<rect x="120.0" y="230.0" width="400.675537359263" height="30.0" fill="#ffc857" opacity="1"/>
<rect x="120.0" y="280.0" width="393.85875127942677" height="30.0" fill="#ffd166" opacity="1"/>
<rect x="120.0" y="330.0" width="384.76970317297855" height="30.0" fill="#ffe082" opacity="1"/>
<rect x="120.0" y="380.0" width="263.58239508700103" height="30.0" fill="#8bd17c" opacity="1"/>
<rect x="120.0" y="430.0" width="257.52302968270214" height="30.0" fill="#66c2a5" opacity="1"/>
<rect x="120.0" y="480.0" width="219.65199590583416" height="30.0" fill="#4bc0c0" opacity="1"/>
<rect x="770" y="20" width="15" height="15" fill="#ff4d4d" opacity="1"/>
<text fill="#e0e0e0" x="790" y="32" text-anchor="start" font-size="12" opacity="1">Health</text>
<rect x="770" y="40" width="15" height="15" fill="#ff7a45" opacity="1"/>
<text fill="#e0e0e0" x="790" y="52" text-anchor="start" font-size="12" opacity="1">Finance</text>
<rect x="770" y="60" width="15" height="15" fill="#ff9f40" opacity="1"/>
<text fill="#e0e0e0" x="790" y="72" text-anchor="start" font-size="12" opacity="1">Industry</text>
<rect x="770" y="80" width="15" height="15" fill="#ffb347" opacity="1"/>
<text fill="#e0e0e0" x="790" y="92" text-anchor="start" font-size="12" opacity="1">Tech</text>
<rect x="770" y="100" width="15" height="15" fill="#ffc857" opacity="1"/>
<text fill="#e0e0e0" x="790" y="112" text-anchor="start" font-size="12" opacity="1">Energy</text>
<rect x="770" y="120" width="15" height="15" fill="#ffd166" opacity="1"/>
<text fill="#e0e0e0" x="790" y="132" text-anchor="start" font-size="12" opacity="1">Pharma</text>
<rect x="770" y="140" width="15" height="15" fill="#ffe082" opacity="1"/>
<text fill="#e0e0e0" x="790" y="152" text-anchor="start" font-size="12" opacity="1">Services</text>
<rect x="770" y="160" width="15" height="15" fill="#8bd17c" opacity="1"/>
<text fill="#e0e0e0" x="790" y="172" text-anchor="start" font-size="12" opacity="1">Retail</text>
<rect x="770" y="180" width="15" height="15" fill="#66c2a5" opacity="1"/>
<text fill="#e0e0e0" x="790" y="192" text-anchor="start" font-size="12" opacity="1">Education</text>
<rect x="770" y="200" width="15" height="15" fill="#4bc0c0" opacity="1"/>
<text fill="#e0e0e0" x="790" y="212" text-anchor="start" font-size="12" opacity="1">Hospitality</text>
</svg>