<svg width="900" height="450" xmlns="http://www.w3.org/2000/svg">
<rect width="900" height="450" fill="#121212"/>
<line x1="40" y1="420" x2="880" y2="420" stroke="#e0e0e0" stroke-width="1" opacity="1"/>
<line x1="40" y1="20" x2="40" y2="420" stroke="#e0e0e0" stroke-width="1" opacity="1"/>
<line x1="40.0" y1="420" x2="40.0" y2="425" stroke="#e0e0e0" stroke-width="1" opacity="1"/>
<text fill="#e0e0e0" x="40.0" y="440" text-anchor="middle" font-size="12" opacity="1">0.0</text>
<line x1="208.0" y1="420" x2="208.0" y2="425" stroke="#e0e0e0" stroke-width="1" opacity="1"/>
<text fill="#e0e0e0" x="208.0" y="440" text-anchor="middle" font-size="12" opacity="1">0.6</text>
<line x1="376.0" y1="420" x2="376.0" y2="425" stroke="#e0e0e0" stroke-width="1" opacity="1"/>
<text fill="#e0e0e0" x="376.0" y="440" text-anchor="middle" font-size="12" opacity="1">1.2</text>
<line x1="544.0" y1="420" x2="544.0" y2="425" stroke="#e0e0e0" stroke-width="1" opacity="1"/>
<text fill="#e0e0e0" x="544.0" y="440" text-anchor="middle" font-size="12" opacity="1">1.8</text>
<line x1="712.0" y1="420" x2="712.0" y2="425" stroke="#e0e0e0" stroke-width="1" opacity="1"/>
<text fill="#e0e0e0" x="712.0" y="440" text-anchor="middle" font-size="12" opacity="1">2.4</text>
<line x1="880.0" y1="420" x2="880.0" y2="425" stroke="#e0e0e0" stroke-width="1" opacity="1"/>
<text fill="#e0e0e0" x="880.0" y="440" text-anchor="middle" font-size="12" opacity="1">3.0</text>
<line x1="35" y1="420.0" x2="40" y2="420.0" stroke="#e0e0e0" stroke-width="1" opacity="1"/>
<text fill="#e0e0e0" x="30" y="424.0" text-anchor="middle" font-size="12" opacity="1">13.0</text>
<line x1="40" y1="420.0" x2="880" y2="420.0" stroke="#444444" stroke-width="1" opacity="1" stroke-dasharray="4,4"/>
<line x1="35" y1="340.0" x2="40" y2="340.0" stroke="#e0e0e0" stroke-width="1" opacity="1"/>
<text fill="#e0e0e0" x="30" y="344.0" text-anchor="middle" font-size="12" opacity="1">17.6</text>
<line x1="40" y1="340.0" x2="880" y2="340.0" stroke="#444444" stroke-width="1" opacity="1" stroke-dasharray="4,4"/>
<line x1="35" y1="260.0" x2="40" y2="260.0" stroke="#e0e0e0" stroke-width="1" opacity="1"/>
<text fill="#e0e0e0" x="30" y="264.0" text-anchor="middle" font-size="12" opacity="1">22.2</text>
<line x1="40" y1="260.0" x2="880" y2="260.0" stroke="#444444" stroke-width="1" opacity="1" stroke-dasharray="4,4"/>
<line x1="35" y1="180.0" x2="40" y2="180.0" stroke="#e0e0e0" stroke-width="1" opacity="1"/>
<text fill="#e0e0e0" x="30" y="184.0" text-anchor="middle" font-size="12" opacity="1">26.8</text>
<line x1="40" y1="180.0" x2="880" y2="180.0" stroke="#444444" stroke-width="1" opacity="1" stroke-dasharray="4,4"/>
<line x1="35" y1="100.0" x2="40" y2="100.0" stroke="#e0e0e0" stroke-width="1" opacity="1"/>
<text fill="#e0e0e0" x="30" y="104.0" text-anchor="middle" font-size="12" opacity="1">31.4</text>
<line x1="40" y1="100.0" x2="880" y2="100.0" stroke="#444444" stroke-width="1" opacity="1" stroke-dasharray="4,4"/>
<line x1="35" y1="20.0" x2="40" y2="20.0" stroke="#e0e0e0" stroke-width="1" opacity="1"/>
<text fill="#e0e0e0" x="30" y="24.0" text-anchor="middle" font-size="12" opacity="1">36.0</text>
<line x1="40" y1="20.0" x2="880" y2="20.0" stroke="#444444" stroke-width="1" opacity="1" stroke-dasharray="4,4"/>
<polyline fill="none" stroke="#ff6384" stroke-width="2" opacity="1" points="40.0,20.0 320.0,124.34782608695656 600.0,367.82608695652175 880.0,367.82608695652175"/>
<circle cx="40.0" cy="20.0" r="3" fill="#ff6384" opacity="1"/>
<circle cx="320.0" cy="124.34782608695656" r="3" fill="#ff6384" opacity="1"/>
<circle cx="600.0" cy="367.82608695652175" r="3" fill="#ff6384" opacity="1"/>
<circle cx="880.0" cy="367.82608695652175" r="3" fill="#ff6384" opacity="1"/>
<polyline fill="none" stroke="#36a2eb" stroke-width="2" opacity="1" points="40.0,211.30434782608697 320.0,263.47826086956525 600.0,420.0 880.0,420.0"/>
<circle cx="40.0" cy="211.30434782608697" r="3" fill="#36a2eb" opacity="1"/>
<circle cx="320.0" cy="263.47826086956525" r="3" fill="#36a2eb" opacity="1"/>
<circle cx="600.0" cy="420.0" r="3" fill="#36a2eb" opacity="1"/>
<circle cx="880.0" cy="420.0" r="3" fill="#36a2eb" opacity="1"/>
<polyline fill="none" stroke="#ff9f40" stroke-width="2" opacity="1" points="40.0,367.82608695652175 320.0,298.2608695652174 600.0,298.2608695652174 880.0,106.95652173913044"/>
<circle cx="40.0" cy="367.82608695652175" r="3" fill="#ff9f40" opacity="1"/>
<circle cx="320.0" cy="298.2608695652174" r="3" fill="#ff9f40" opacity="1"/>
<circle cx="600.0" cy="298.2608695652174" r="3" fill="#ff9f40" opacity="1"/>
<circle cx="880.0" cy="106.95652173913044" r="3" fill="#ff9f40" opacity="1"/>
<rect x="790" y="20" width="15" height="15" fill="#ff6384" opacity="1"/>
<text fill="#e0e0e0" x="810" y="32" text-anchor="start" font-size="12" opacity="1">Phishing</text>
<rect x="790" y="40" width="15" height="15" fill="#36a2eb" opacity="1"/>
<text fill="#e0e0e0" x="810" y="52" text-anchor="start" font-size="12" opacity="1">Credentials</text>
<rect x="790" y="60" width="15" height="15" fill="#ff9f40" opacity="1"/>
<text fill="#e0e0e0" x="810" y="72" text-anchor="start" font-size="12" opacity="1">Vulns</text>
</svg>