<svg width="800" height="800" xmlns="http://www.w3.org/2000/svg">
<rect width="800" height="800" fill="#121212"/>
<path d="M 410.0 395.0 L 780.0 395.0 A 370.0 370.0 0 0 1 192.519456651785 694.3362879187305 Z" fill="#ff6384cc" stroke="none" stroke-width="2" opacity="1"/>
<path d="M 410.0 395.0 L 192.519456651785 694.3362879187305 A 370.0 370.0 0 0 1 110.66371208126947 177.519456651785 Z" fill="#ff9f40cc" stroke="none" stroke-width="2" opacity="1"/>
<path d="M 410.0 395.0 L 110.66371208126947 177.519456651785 A 370.0 370.0 0 0 1 479.3310863967183 31.55371723038519 Z" fill="#ffcd56cc" stroke="none" stroke-width="2" opacity="1"/>
<path d="M 410.0 395.0 L 479.3310863967183 31.55371723038519 A 370.0 370.0 0 0 1 627.480543348215 95.66371208126941 Z" fill="#4bc0c0cc" stroke="none" stroke-width="2" opacity="1"/>
<path d="M 410.0 395.0 L 627.480543348215 95.66371208126941 A 370.0 370.0 0 0 1 761.8909110292068 280.66371208126935 Z" fill="#36a2ebcc" stroke="none" stroke-width="2" opacity="1"/>
<path d="M 410.0 395.0 L 761.8909110292068 280.66371208126935 A 370.0 370.0 0 0 1 780.0 394.9999999999999 Z" fill="#9966ffcc" stroke="none" stroke-width="2" opacity="1"/>
<rect x="690" y="20" width="15" height="15" fill="#ff6384cc" opacity="1"/>
<text fill="#e0e0e0" x="710" y="32" text-anchor="start" font-size="12" opacity="1">Creds</text>
<rect x="690" y="40" width="15" height="15" fill="#ff9f40cc" opacity="1"/>
<text fill="#e0e0e0" x="710" y="52" text-anchor="start" font-size="12" opacity="1">Phish</text>
<rect x="690" y="60" width="15" height="15" fill="#ffcd56cc" opacity="1"/>
<text fill="#e0e0e0" x="710" y="72" text-anchor="start" font-size="12" opacity="1">Vuln</text>
<rect x="690" y="80" width="15" height="15" fill="#4bc0c0cc" opacity="1"/>
<text fill="#e0e0e0" x="710" y="92" text-anchor="start" font-size="12" opacity="1">Brute</text>
<rect x="690" y="100" width="15" height="15" fill="#36a2ebcc" opacity="1"/>
<text fill="#e0e0e0" x="710" y="112" text-anchor="start" font-size="12" opacity="1">Config</text>
<rect x="690" y="120" width="15" height="15" fill="#9966ffcc" opacity="1"/>
<text fill="#e0e0e0" x="710" y="132" text-anchor="start" font-size="12" opacity="1">Other</text>
</svg>